<svg width="16" height="16" viewBox="0 0 16 16" fill="none" xmlns="http://www.w3.org/2000/svg">
  <path d="M16 3.038a6.541 6.541 0 0 1-1.885.516 3.293 3.293 0 0 0 1.443-1.816 6.573 6.573 0 0 1-2.084.797 3.281 3.281 0 0 0-5.594 2.992 9.325 9.325 0 0 1-6.767-3.429 3.281 3.281 0 0 0 1.015 4.374A3.273 3.273 0 0 1 .64 6.575v.041a3.28 3.28 0 0 0 2.632 3.217 3.291 3.291 0 0 1-.865.115 3.304 3.304 0 0 1-.617-.057 3.28 3.28 0 0 0 3.067 2.281 6.585 6.585 0 0 1-4.075 1.405 6.653 6.653 0 0 1-.779-.045A9.29 9.29 0 0 0 5.03 15c6.038 0 9.341-5 9.341-9.334 0-.142-.003-.284-.01-.424A6.68 6.68 0 0 0 16 3.038z" fill="white"/>
</svg>