<svg width="16" height="16" viewBox="0 0 16 16" fill="none" xmlns="http://www.w3.org/2000/svg">
  <path d="M8 0C3.582 0 0 3.582 0 8c0 3.539 2.292 6.533 5.471 7.594.4.074.546-.174.546-.387 0-.191-.007-.697-.01-1.367-2.225.483-2.695-1.073-2.695-1.073-.364-.924-.891-1.17-.891-1.17-.727-.497.055-.487.055-.487.803.056 1.225.825 1.225.825.715 1.224 1.875.87 2.332.665.073-.517.28-.87.508-1.07-1.777-.202-3.644-.889-3.644-3.955 0-.873.312-1.588.824-2.148-.083-.202-.357-1.014.078-2.115 0 0 .672-.215 2.2.82A7.684 7.684 0 0 1 8 4.933c.681.003 1.368.092 2.01.271 1.527-1.035 2.198-.82 2.198-.82.437 1.101.162 1.913.08 2.115.514.56.822 1.275.822 2.148 0 3.074-1.87 3.75-3.653 3.95.287.246.544.732.544 1.479 0 1.07-.01 1.93-.01 2.193 0 .214.144.463.55.385C13.708 14.533 16 11.539 16 8c0-4.418-3.582-8-8-8z" fill="white"/>
</svg>